<svg height="64" viewBox="0 0 25.6 25.6" width="64" xmlns="http://www.w3.org/2000/svg"><g transform="scale(.19393939)"><rect fill="#119dff" height="132" rx="6" width="132"/><g fill="#25fefd"><circle cx="78" cy="54" r="6"/><circle cx="102" cy="30" r="6"/><circle cx="78" cy="30" r="6"/><circle cx="54" cy="30" r="6"/><circle cx="30" cy="30" r="6"/><circle cx="30" cy="54" r="6"/></g><path d="m30 72a6 6 0 0 0 -6 6v24a6 6 0 0 0 12 0v-24a6 6 0 0 0 -6-6z" fill="#fff"/><path d="m78 72a6 6 0 0 0 -6 6v24a6 6 0 0 0 12 0v-24a6 6 0 0 0 -6-6z" fill="#fff"/><path d="m54 48a6 6 0 0 0 -6 6v48a6 6 0 0 0 12 0v-48a6 6 0 0 0 -6-6z" fill="#fff"/><path d="m102 48a6 6 0 0 0 -6 6v48a6 6 0 0 0 12 0v-48a6 6 0 0 0 -6-6z" fill="#fff"/></g></svg>